<?xml version="1.0" encoding="iso-8859-1"?>
<svg version="1.1" id="Layer_1" xmlns="http://www.w3.org/2000/svg" xmlns:xlink="http://www.w3.org/1999/xlink" viewBox="0 0 512 512" xml:space="preserve">
<g>
	<path style="fill:#C2DCE0;" d="M203.518,300.832l-2.775-1.295c-5.203-2.426-7.454-8.61-5.028-13.812l8.958-19.21
		c2.426-5.203,8.61-7.454,13.813-5.028l2.775,1.295c5.203,2.426,7.454,8.61,5.028,13.813l-8.958,19.21
		C214.904,301.007,208.719,303.258,203.518,300.832z"/>
	<path style="fill:#C2DCE0;" d="M308.483,300.832l2.775-1.295c5.203-2.426,7.454-8.61,5.028-13.812l-8.958-19.21
		c-2.426-5.203-8.61-7.454-13.812-5.028l-2.775,1.295c-5.203,2.426-7.454,8.61-5.028,13.813l8.958,19.21
		C297.096,301.007,303.281,303.258,308.483,300.832z"/>
</g>
<path style="opacity:0.1;enable-background:new    ;" d="M316.286,285.725l-8.957-19.21c-2.426-5.203-8.61-7.454-13.813-5.028
	l-2.775,1.295c-0.398,0.186-0.772,0.4-1.134,0.628c5.818,12.299,13.416,24.472,22.731,35.54
	C316.758,296.217,318.536,290.551,316.286,285.725z"/>
<path style="opacity:0.1;enable-background:new    ;" d="M195.715,285.725l8.958-19.21c2.426-5.203,8.61-7.454,13.813-5.028
	l2.775,1.295c0.398,0.186,0.772,0.4,1.134,0.628c-5.818,12.299-13.416,24.472-22.731,35.54
	C195.243,296.217,193.464,290.551,195.715,285.725z"/>
<rect x="207.198" y="214.927" style="fill:#394049;" width="97.608" height="23.207"/>
<path style="opacity:0.3;enable-background:new    ;" d="M277.024,214.926c0.549,7.291,1.955,15.125,4.189,23.207h23.591v-23.207
	H277.024z"/>
<path style="opacity:0.3;enable-background:new    ;" d="M234.976,214.926c-0.549,7.291-1.954,15.125-4.189,23.207h-23.591v-23.207
	H234.976z"/>
<path style="fill:#72649C;" d="M228.024,208.086c0-13.799,6.9-42.165-105.795-42.165c-63.63,0-86.844,12.579-93.529,33.349
	c-9.967,30.96-19.932,146.809,65.93,146.809S228.024,259.45,228.024,208.086z"/>
<path style="opacity:0.2;fill:#EDA3B2;enable-background:new    ;" d="M122.227,165.921c-63.63,0-86.844,12.579-93.529,33.349
	c-5.009,15.561-10.013,52.564-2.855,85.527l118.462-118.462C137.503,166.066,130.173,165.921,122.227,165.921z"/>
<path style="fill:#72649C;" d="M283.978,208.086c0-13.799-6.899-42.165,105.795-42.165c63.63,0,86.844,12.579,93.529,33.349
	c9.967,30.96,19.932,146.809-65.93,146.809S283.978,259.45,283.978,208.086z"/>
<path style="opacity:0.2;fill:#EDA3B2;enable-background:new    ;" d="M483.303,199.269c-1.951-6.058-5.323-11.415-10.679-15.971
	L338.811,317.111c20.727,17.3,47.061,28.968,78.561,28.968C503.235,346.079,493.268,230.23,483.303,199.269z"/>
<g>
	<path style="fill:#394049;" d="M37.002,231.179h-23.91c-2.839,0-5.14-2.302-5.14-5.14V208.93c0-2.839,2.302-5.14,5.14-5.14h23.91
		c2.758,0,5.37,1.237,7.118,3.371l5.73,6.996c1.585,1.936,1.585,4.721,0,6.657l-5.73,6.996
		C42.373,229.941,39.76,231.179,37.002,231.179z"/>
	<path style="fill:#394049;" d="M474.998,231.179h23.91c2.839,0,5.14-2.302,5.14-5.14V208.93c0-2.839-2.302-5.14-5.14-5.14h-23.91
		c-2.758,0-5.37,1.237-7.117,3.371l-5.73,6.996c-1.585,1.936-1.585,4.721,0,6.657l5.73,6.996
		C469.628,229.941,472.241,231.179,474.998,231.179z"/>
</g>
<path d="M498.908,195.838h-8.386c-9.188-26.522-39.423-37.869-100.749-37.869c-53.824,0-86.552,6.168-102.308,19.351h-62.931
	c-15.755-13.183-48.483-19.351-102.308-19.351c-61.325,0-91.56,11.347-100.748,37.869h-8.387C5.874,195.838,0,201.712,0,208.93
	v17.109c0,7.219,5.874,13.092,13.093,13.092h1.459c-0.551,12.139-0.26,27.679,2.743,43.542c3.892,20.56,11.441,37.052,22.44,49.023
	c13.617,14.822,32.087,22.336,54.894,22.336c38.526,0,74.249-17.035,101.219-48.093c0.497,0.292,1.008,0.562,1.536,0.808
	l2.774,1.294c2.466,1.149,5.1,1.728,7.742,1.728c2.116,0,4.239-0.371,6.286-1.116c4.606-1.676,8.282-5.045,10.352-9.486l8.957-19.21
	c4.067-8.723,0.652-19.033-7.585-23.698c1.336-3.384,2.553-6.78,3.637-10.173h52.907c1.085,3.393,2.301,6.788,3.637,10.172
	c-8.236,4.665-11.652,14.975-7.586,23.698l8.958,19.211c2.071,4.441,5.747,7.81,10.352,9.486c2.048,0.745,4.17,1.116,6.286,1.116
	c2.642,0,5.275-0.578,7.74-1.728l2.779-1.296c0.527-0.246,1.037-0.515,1.533-0.806c26.97,31.057,62.693,48.093,101.219,48.093
	c22.807,0,41.277-7.514,54.893-22.336c10.998-11.97,18.547-28.463,22.44-49.023c3.003-15.863,3.294-31.402,2.743-43.542h1.458
	c7.219,0,13.093-5.873,13.093-13.092V208.93C512,201.712,506.126,195.838,498.908,195.838z M15.904,223.227v-11.485h21.098
	c0.375,0,0.727,0.166,0.965,0.457l4.329,5.285l-4.33,5.287c-0.237,0.289-0.59,0.456-0.964,0.456H15.904z M219.08,273.234
	l-8.956,19.21c-0.354,0.757-0.946,1.105-1.378,1.262c-0.434,0.159-1.108,0.272-1.869-0.082l-0.987-0.46
	c4.951-6.978,9.384-14.335,13.232-21.88C219.369,271.892,219.379,272.594,219.08,273.234z M220.11,205.619
	c-0.021,0.861-0.04,1.686-0.04,2.467c0,25.893-12.85,58.578-32.739,83.269c-17.186,21.337-47.219,46.772-92.703,46.772
	c-18.173,0-32.702-5.785-43.184-17.192c-7.37-8.021-23.595-31.65-20.976-81.804h6.533c5.162,0,9.999-2.291,13.268-6.283L56,225.851
	c3.97-4.848,3.97-11.886-0.001-16.734l-5.729-6.995c-2.877-3.514-6.966-5.705-11.422-6.182
	c6.734-11.231,25.127-22.067,83.377-22.067c63.641,0,86.04,9.267,93.624,17.04C220.359,195.533,220.238,200.432,220.11,205.619z
	 M277.1,193.224c-1.289,4.923-1.192,9.453-1.11,12.787c0.008,0.336,0.011,0.64,0.017,0.963h-40.016
	c0.006-0.322,0.008-0.627,0.017-0.963c0.083-3.333,0.179-7.864-1.11-12.787H277.1z M233.672,230.18
	c0.487-2.452,0.901-4.889,1.236-7.302h42.184c0.334,2.414,0.75,4.851,1.236,7.302H233.672z M305.121,293.625
	c-0.757,0.355-1.433,0.24-1.867,0.082c-0.433-0.157-1.024-0.505-1.378-1.262l-8.957-19.211c-0.298-0.639-0.287-1.341-0.04-1.95
	c3.848,7.545,8.281,14.903,13.232,21.88L305.121,293.625z M460.556,320.935c-10.482,11.407-25.011,17.192-43.183,17.192
	c-45.482,0-75.517-25.435-92.703-46.772c-19.889-24.692-32.739-57.377-32.739-83.269c0-0.781-0.02-1.606-0.04-2.467
	c-0.128-5.187-0.249-10.084,4.259-14.706c7.583-7.774,29.982-17.04,93.624-17.04c58.251,0,76.645,10.836,83.379,22.067
	c-4.456,0.477-8.546,2.669-11.421,6.181l-5.731,6.997c-3.97,4.848-3.97,11.886,0.001,16.734l5.729,6.995
	c3.27,3.994,8.107,6.285,13.269,6.285h6.533C484.151,289.285,467.926,312.914,460.556,320.935z M496.096,223.227h-21.098
	c-0.375,0-0.727-0.166-0.965-0.457l-4.329-5.285l4.33-5.287c0.238-0.289,0.59-0.456,0.964-0.456h21.098V223.227z"/>
</svg>